<svg width="1334" height="1334" viewBox="0 0 1334 1334" fill="none" xmlns="http://www.w3.org/2000/svg">
<rect width="1334" height="1334" fill="#1E1E1E"/>
<rect width="1333.33" height="1333.33" rx="100" fill="white"/>
<path d="M212.104 1099.21C210.036 1099.21 207.312 1098.66 203.943 1097.55C200.568 1096.43 196.849 1094.89 192.786 1092.89C188.719 1090.9 184.432 1088.58 179.906 1085.93C175.38 1083.29 170.917 1080.43 166.51 1077.36C162.104 1074.3 157.906 1071.09 153.922 1067.76C149.932 1064.43 146.401 1061.11 143.339 1057.81C140.276 1054.52 137.833 1051.32 136.042 1048.21C134.234 1045.11 133.333 1042.21 133.333 1039.53C133.333 1031.41 134.891 1023.03 137.995 1014.41C141.094 1005.78 145.391 997.385 150.875 989.224C156.354 981.057 162.87 973.354 170.422 966.109C177.974 958.865 186.214 952.521 195.146 947.078C204.078 941.635 213.542 937.323 223.552 934.141C233.552 930.958 243.693 929.37 253.964 929.37C258.411 929.37 262.339 930.099 265.75 931.552C269.161 933.01 272.036 935.026 274.375 937.589C276.714 940.161 278.479 943.208 279.667 946.734C280.854 950.26 281.448 954.094 281.448 958.229C281.448 960.302 281.083 962.255 280.354 964.094C279.625 965.938 278.667 967.641 277.479 969.214C276.292 970.786 274.948 972.245 273.453 973.583C271.958 974.927 270.448 976.135 268.911 977.208C265.229 979.734 261.052 981.922 256.38 983.76L236.599 959.495C232 960.724 227.286 962.813 222.453 965.766C217.625 968.714 212.927 972.26 208.37 976.401C203.807 980.542 199.495 985.12 195.432 990.141C191.365 995.161 187.823 1000.42 184.792 1005.9C181.766 1011.38 179.37 1016.92 177.604 1022.51C175.844 1028.11 174.969 1033.52 174.969 1038.72C174.969 1040.65 175.672 1042.92 177.094 1045.57C178.51 1048.21 180.349 1050.95 182.615 1053.79C184.87 1056.63 187.479 1059.43 190.432 1062.19C193.38 1064.94 196.411 1067.44 199.51 1069.66C202.62 1071.89 205.646 1073.67 208.599 1075.01C211.547 1076.35 214.214 1077.02 216.594 1077.02C217.974 1077.02 220.099 1076.31 222.974 1074.89C225.844 1073.47 229.219 1071.61 233.094 1069.32C236.964 1067.02 241.177 1064.41 245.74 1061.49C250.302 1058.58 254.901 1055.57 259.542 1052.47C264.177 1049.36 268.745 1046.35 273.224 1043.44C277.708 1040.53 281.854 1037.92 285.641 1035.62C289.437 1033.32 292.714 1031.46 295.474 1030.04C298.234 1028.63 300.193 1027.92 301.344 1027.92C303.026 1027.92 303.875 1028.8 303.875 1030.56C303.875 1031.18 303.677 1032.17 303.297 1033.55C302.448 1036.54 300.844 1039.76 298.469 1043.21C296.089 1046.66 293.198 1050.21 289.781 1053.85C286.37 1057.49 282.542 1061.13 278.286 1064.77C274.031 1068.42 269.562 1071.92 264.885 1075.29C260.208 1078.67 255.437 1081.81 250.573 1084.72C245.703 1087.64 240.969 1090.17 236.37 1092.31C231.771 1094.46 227.401 1096.15 223.26 1097.38C219.12 1098.6 215.401 1099.21 212.104 1099.21Z" fill="#1B503E"/>
<path d="M346.302 1022.05C345.224 1021.36 344.156 1021.02 343.083 1021.02C342.161 1021.02 341.26 1021.24 340.38 1021.71C339.495 1022.17 338.714 1022.74 338.021 1023.43C335.188 1026.42 332.521 1029.6 330.031 1032.98C327.536 1036.35 325.375 1039.78 323.531 1043.27C321.693 1046.76 320.234 1050.22 319.161 1053.68C318.089 1057.13 317.552 1060.39 317.552 1063.45C317.552 1064.3 317.859 1064.98 318.474 1065.52C319.083 1066.06 319.813 1066.32 320.656 1066.32C321.885 1066.32 323.417 1065.79 325.26 1064.71C327.099 1063.65 328.979 1062.32 330.896 1060.75C332.807 1059.18 334.672 1057.51 336.474 1055.74C338.271 1053.98 339.75 1052.41 340.896 1051.03C342.891 1048.66 344.651 1046.26 346.188 1043.84C347.719 1041.43 349.177 1038.88 350.557 1036.2C349.328 1035.2 348.432 1034.15 347.854 1033.04C347.281 1031.92 346.875 1030.77 346.646 1029.58C346.417 1028.4 346.323 1027.17 346.359 1025.91C346.396 1024.64 346.375 1023.36 346.302 1022.05ZM408.974 1038.72C407.823 1041.64 406.198 1044.32 404.089 1046.78C401.979 1049.23 399.599 1051.34 396.953 1053.1C394.312 1054.86 391.531 1056.22 388.62 1057.18C385.708 1058.15 382.87 1058.62 380.109 1058.62C376.505 1058.62 373.359 1057.78 370.682 1056.09C368.458 1061.38 365.911 1066.11 363.036 1070.29C360.156 1074.47 356.937 1078.27 353.37 1081.68C349.812 1085.09 345.937 1088.21 341.76 1091.05C337.578 1093.89 333.151 1096.6 328.479 1099.21C327.792 1099.59 326.906 1099.79 325.833 1099.79C324.068 1099.79 322 1099.25 319.62 1098.18C317.245 1097.1 314.734 1095.72 312.089 1094.04C309.448 1092.35 306.781 1090.47 304.099 1088.41C301.411 1086.33 298.885 1084.3 296.51 1082.31C294.135 1080.32 291.984 1078.48 290.068 1076.79C288.156 1075.1 286.661 1073.8 285.589 1072.88C285.359 1071.73 285.125 1070.45 284.896 1069.03C284.667 1067.61 284.474 1066.19 284.323 1064.77C284.167 1063.35 284.052 1062.03 283.979 1060.81C283.901 1059.58 283.865 1058.62 283.865 1057.93C283.865 1054.02 284.516 1049.99 285.818 1045.85C287.12 1041.72 288.786 1037.67 290.818 1033.72C292.844 1029.78 295.109 1025.98 297.599 1022.34C300.094 1018.7 302.526 1015.46 304.901 1012.63C306.818 1010.09 309.406 1007.47 312.667 1004.74C315.927 1002.03 319.49 999.573 323.365 997.385C327.229 995.203 331.219 993.401 335.323 991.979C339.422 990.563 343.271 989.854 346.875 989.854C350.786 989.854 354.563 991.005 358.203 993.302C361.844 995.604 365.083 998.464 367.922 1001.87C370.76 1005.28 373.036 1008.94 374.766 1012.85C376.49 1016.76 377.349 1020.37 377.349 1023.66C377.349 1024.35 377.312 1025.14 377.234 1026.02C377.156 1026.9 377.063 1027.79 376.948 1028.66C376.833 1029.55 376.682 1030.41 376.49 1031.25C376.297 1032.09 376.083 1032.79 375.854 1033.32C376.162 1033.55 376.412 1033.72 376.604 1033.84C376.797 1033.96 377.042 1034.07 377.349 1034.19C377.656 1034.3 378.078 1034.38 378.615 1034.42C379.151 1034.45 379.953 1034.47 381.031 1034.47C382.177 1034.47 383.37 1034.42 384.594 1034.3C385.818 1034.19 387.104 1033.86 388.448 1033.32C389.787 1032.79 391.146 1031.98 392.526 1030.91C393.912 1029.83 395.365 1028.38 396.901 1026.54L408.974 1038.72Z" fill="#1B503E"/>
<path d="M446.115 1022.05C445.042 1021.36 443.964 1021.02 442.891 1021.02C441.974 1021.02 441.073 1021.24 440.193 1021.71C439.307 1022.17 438.521 1022.74 437.839 1023.43C435 1026.42 432.333 1029.6 429.844 1032.98C427.349 1036.35 425.182 1039.78 423.349 1043.27C421.505 1046.76 420.047 1050.22 418.974 1053.68C417.901 1057.13 417.365 1060.39 417.365 1063.45C417.365 1064.3 417.672 1064.98 418.286 1065.52C418.901 1066.06 419.63 1066.32 420.469 1066.32C421.693 1066.32 423.234 1065.79 425.068 1064.71C426.906 1063.65 428.786 1062.32 430.703 1060.75C432.62 1059.18 434.479 1057.51 436.281 1055.74C438.083 1053.98 439.557 1052.41 440.708 1051.03C442.698 1048.66 444.464 1046.26 446 1043.84C447.531 1041.43 448.99 1038.88 450.37 1036.2C449.141 1035.2 448.24 1034.15 447.667 1033.04C447.089 1031.92 446.687 1030.77 446.458 1029.58C446.229 1028.4 446.13 1027.17 446.167 1025.91C446.208 1024.64 446.193 1023.36 446.115 1022.05ZM508.786 1038.72C507.635 1041.64 506.005 1044.32 503.896 1046.78C501.786 1049.23 499.411 1051.34 496.766 1053.1C494.125 1054.86 491.344 1056.22 488.432 1057.18C485.516 1058.15 482.677 1058.62 479.922 1058.62C476.318 1058.62 473.177 1057.78 470.49 1056.09C468.266 1061.38 465.719 1066.11 462.844 1070.29C459.974 1074.47 456.75 1078.27 453.187 1081.68C449.62 1085.09 445.745 1088.21 441.573 1091.05C437.391 1093.89 432.969 1096.6 428.286 1099.21C427.599 1099.59 426.714 1099.79 425.641 1099.79C423.88 1099.79 421.807 1099.25 419.437 1098.18C417.057 1097.1 414.547 1095.72 411.906 1094.04C409.255 1092.35 406.594 1090.47 403.911 1088.41C401.229 1086.33 398.698 1084.3 396.318 1082.31C393.943 1080.32 391.802 1078.48 389.88 1076.79C387.964 1075.1 386.469 1073.8 385.396 1072.88C385.167 1071.73 384.937 1070.45 384.703 1069.03C384.474 1067.61 384.286 1066.19 384.13 1064.77C383.979 1063.35 383.859 1062.03 383.786 1060.81C383.713 1059.58 383.672 1058.62 383.672 1057.93C383.672 1054.02 384.323 1049.99 385.625 1045.85C386.927 1041.72 388.599 1037.67 390.625 1033.72C392.661 1029.78 394.922 1025.98 397.417 1022.34C399.901 1018.7 402.339 1015.46 404.714 1012.63C406.63 1010.09 409.219 1007.47 412.479 1004.74C415.734 1002.03 419.297 999.573 423.172 997.385C427.042 995.203 431.026 993.401 435.13 991.979C439.234 990.563 443.083 989.854 446.688 989.854C450.599 989.854 454.375 991.005 458.016 993.302C461.656 995.604 464.896 998.464 467.729 1001.87C470.568 1005.28 472.849 1008.94 474.573 1012.85C476.297 1016.76 477.161 1020.37 477.161 1023.66C477.161 1024.35 477.125 1025.14 477.047 1026.02C476.969 1026.9 476.87 1027.79 476.755 1028.66C476.641 1029.55 476.49 1030.41 476.297 1031.25C476.104 1032.09 475.896 1032.79 475.667 1033.32C475.974 1033.55 476.219 1033.72 476.412 1033.84C476.604 1033.96 476.854 1034.07 477.162 1034.19C477.469 1034.3 477.891 1034.38 478.427 1034.42C478.958 1034.45 479.766 1034.47 480.844 1034.47C481.99 1034.47 483.177 1034.42 484.406 1034.3C485.63 1034.19 486.917 1033.86 488.26 1033.32C489.599 1032.79 490.964 1031.98 492.344 1030.91C493.724 1029.83 495.172 1028.38 496.708 1026.54L508.786 1038.72Z" fill="#1B503E"/>
<path d="M539.255 1033.9C542.094 1033.13 544.661 1032.21 546.958 1031.14C548.875 1030.22 550.635 1029.11 552.25 1027.8C553.859 1026.5 554.667 1024.96 554.667 1023.2C554.667 1022.21 554.125 1021.44 553.052 1020.9C551.979 1020.37 550.943 1020.1 549.948 1020.1C548.646 1020.1 547.323 1020.44 545.979 1021.13C544.641 1021.82 543.354 1022.62 542.13 1023.55C540.906 1024.47 539.807 1025.43 538.849 1026.42C537.891 1027.42 537.182 1028.19 536.724 1028.72L539.255 1033.9ZM563.401 894.297C559.797 904.724 556.292 915.208 552.88 925.745C549.469 936.286 546.286 946.542 543.339 956.505C540.385 966.474 537.776 975.979 535.521 985.021C533.255 994.068 531.469 1002.31 530.172 1009.75C532.469 1006.91 534.75 1004.29 537.016 1001.87C539.271 999.453 541.724 997.349 544.37 995.547C547.016 993.745 549.964 992.328 553.224 991.292C556.484 990.26 560.255 989.74 564.552 989.74C567.005 989.74 569.323 990.125 571.51 990.891C573.693 991.656 575.615 992.865 577.26 994.51C578.911 996.161 580.208 998.25 581.172 1000.78C582.125 1003.31 582.609 1006.34 582.609 1009.86C582.609 1015.15 581.531 1019.87 579.385 1024.01C577.24 1028.15 574.443 1031.73 570.995 1034.76C567.542 1037.79 563.708 1040.3 559.495 1042.29C555.276 1044.29 551.099 1045.74 546.958 1046.66C549.797 1050.49 552.365 1053.98 554.667 1057.13C556.964 1060.27 559.167 1062.93 561.276 1065.11C563.385 1067.3 565.51 1068.99 567.656 1070.18C569.807 1071.37 572.146 1071.96 574.672 1071.96C577.891 1071.96 581.188 1071.02 584.563 1069.14C587.932 1067.27 591.271 1064.83 594.568 1061.84C597.865 1058.85 601.062 1055.54 604.167 1051.89C607.276 1048.25 610.146 1044.71 612.792 1041.26C615.437 1037.81 617.792 1034.62 619.865 1031.71C621.932 1028.8 623.62 1026.58 624.922 1025.04L633.547 1036.43C631.401 1040.18 629.005 1044.34 626.359 1048.91C623.719 1053.46 620.844 1058.1 617.74 1062.82C614.63 1067.53 611.297 1072.11 607.734 1076.56C604.167 1081.01 600.432 1084.95 596.521 1088.4C592.609 1091.85 588.49 1094.63 584.156 1096.74C579.823 1098.85 575.359 1099.9 570.766 1099.9C565.396 1099.9 560.625 1099.39 556.443 1098.35C552.266 1097.32 548.552 1095.94 545.292 1094.21C542.031 1092.48 539.156 1090.44 536.672 1088.06C534.177 1085.68 531.917 1083.15 529.88 1080.47C527.849 1077.79 525.953 1075.01 524.193 1072.13C522.427 1069.26 520.703 1066.44 519.016 1063.68C517.099 1065.45 515.526 1067.63 514.302 1070.23C513.078 1072.84 511.964 1075.6 510.969 1078.51C509.969 1081.43 508.99 1084.34 508.036 1087.25C507.073 1090.17 505.906 1092.79 504.526 1095.13C503.146 1097.47 501.458 1099.36 499.469 1100.82C497.474 1102.28 494.979 1103.01 491.99 1103.01C490.458 1103.01 489.083 1102.93 487.854 1102.78C486.63 1102.63 485.594 1102.22 484.75 1101.57C483.906 1100.92 483.271 1099.96 482.849 1098.7C482.432 1097.43 482.219 1095.69 482.219 1093.46C482.219 1089.86 482.661 1084.34 483.542 1076.91C484.422 1069.47 485.823 1060.69 487.74 1050.57C489.651 1040.45 492.104 1029.28 495.099 1017.05C498.089 1004.82 501.656 992.12 505.792 978.932C509.932 965.745 514.719 952.349 520.167 938.74C525.609 925.13 531.698 911.927 538.448 899.125L563.401 894.297Z" fill="#1B503E"/>
<path d="M655.745 950.068C657.276 949.995 658.807 949.875 660.339 949.719C661.646 949.646 663.063 949.568 664.594 949.49C666.13 949.417 667.547 949.375 668.854 949.375C670.542 949.375 672.302 950.011 674.141 951.276C675.979 952.542 677.667 954.287 679.198 956.505C680.734 958.734 682 961.339 682.995 964.323C683.995 967.318 684.49 970.537 684.49 973.984C684.49 976.516 683.802 978.641 682.422 980.37C681.042 982.094 678.625 982.953 675.172 982.953C671.88 982.953 668.776 982.479 665.859 981.516C662.948 980.557 660.401 979.219 658.214 977.49C656.031 975.771 654.302 973.719 653.036 971.339C651.776 968.964 651.141 966.396 651.141 963.636C651.141 961.261 651.547 958.958 652.349 956.734C653.151 954.516 654.286 952.292 655.745 950.068ZM697.948 1027.69C699.021 1029.22 700.13 1030.6 701.281 1031.83C702.432 1033.05 703.464 1034.09 704.38 1034.93C705.302 1035.78 706.052 1036.47 706.63 1037C707.203 1037.54 707.49 1037.89 707.49 1038.04C706.339 1040.57 704.521 1043.79 702.026 1047.7C699.536 1051.6 696.656 1055.79 693.406 1060.23C690.146 1064.68 686.656 1069.15 682.938 1073.63C679.219 1078.11 675.557 1082.18 671.958 1085.82C668.354 1089.46 664.927 1092.41 661.667 1094.67C658.406 1096.93 655.63 1098.06 653.328 1098.06C651.87 1098.06 650.005 1097.73 647.75 1097.09C645.49 1096.43 643.052 1095.59 640.448 1094.56C637.844 1093.52 635.219 1092.37 632.573 1091.11C629.927 1089.84 627.474 1088.58 625.208 1087.31C622.948 1086.05 621.01 1084.84 619.401 1083.69C617.792 1082.54 616.724 1081.62 616.188 1080.93C614.807 1078.94 613.813 1076.64 613.198 1074.03C612.583 1071.43 612.276 1068.59 612.276 1065.52C612.276 1061.54 612.854 1056.88 614 1051.55C615.151 1046.22 616.703 1040.76 618.656 1035.16C620.615 1029.57 622.854 1024.05 625.385 1018.6C627.917 1013.16 630.521 1008.29 633.203 1004C635.885 999.708 638.568 996.235 641.255 993.594C643.932 990.948 646.385 989.625 648.609 989.625C649.839 989.625 651.141 990.083 652.521 991.005C654.594 992.542 656.375 994.167 657.87 995.891C659.365 997.62 660.646 999.438 661.719 1001.35C662.792 1003.27 663.714 1005.3 664.479 1007.45C665.25 1009.59 665.979 1011.85 666.667 1014.23C665.365 1015.69 663.969 1017.63 662.469 1020.04C660.974 1022.45 659.458 1025.16 657.927 1028.15C656.391 1031.14 654.917 1034.3 653.5 1037.64C652.078 1040.97 650.813 1044.3 649.708 1047.64C648.594 1050.97 647.714 1054.23 647.063 1057.41C646.411 1060.59 646.083 1063.45 646.083 1065.98C646.083 1068.05 646.313 1069.81 646.771 1071.27C650.604 1069.35 654.823 1066.61 659.422 1063.05C664.021 1059.48 668.62 1055.63 673.224 1051.49C677.818 1047.35 682.266 1043.15 686.563 1038.9C690.854 1034.65 694.646 1030.91 697.948 1027.69Z" fill="#1B503E"/>
<path d="M885.385 918.557C882.01 924.229 878.464 930.635 874.745 937.76C871.026 944.891 867.255 952.484 863.417 960.531C859.589 968.583 855.755 976.938 851.922 985.599C848.083 994.266 844.385 1002.96 840.828 1011.7C837.26 1020.44 833.885 1029.05 830.703 1037.52C827.521 1045.99 824.682 1054.06 822.198 1061.72C819.703 1069.39 817.594 1076.5 815.87 1083.06C814.146 1089.61 812.979 1095.34 812.365 1100.24C812.208 1101.09 811.807 1101.97 811.156 1102.89C810.505 1103.81 809.62 1104.66 808.51 1105.42C807.401 1106.19 806.135 1106.82 804.719 1107.32C803.297 1107.82 801.75 1108.07 800.063 1108.07C798.068 1108.07 795.938 1107.6 793.677 1106.69C791.417 1105.77 789.177 1104.08 786.953 1101.63C784.729 1097.79 782.505 1092.62 780.281 1086.1C778.057 1079.59 775.891 1072.42 773.781 1064.6C771.672 1056.78 769.625 1048.6 767.63 1040.05C765.635 1031.5 763.74 1023.26 761.938 1015.32C760.135 1007.39 758.396 1000.09 756.708 993.417C755.021 986.75 753.484 981.344 752.104 977.208C751.109 980.427 749.807 984.411 748.198 989.167C746.589 993.922 744.766 999.167 742.734 1004.92C740.703 1010.67 738.536 1016.7 736.234 1023.03C733.938 1029.35 731.62 1035.72 729.281 1042.11C726.943 1048.52 724.641 1054.75 722.385 1060.81C720.12 1066.86 717.99 1072.48 716 1077.65C714.005 1082.83 712.219 1087.39 710.656 1091.34C709.083 1095.29 707.833 1098.33 706.911 1100.48C704.229 1099.79 701.859 1098.77 699.786 1097.43C697.714 1096.09 695.724 1094.57 693.807 1092.89C691.891 1091.2 690.016 1089.44 688.172 1087.6C686.333 1085.76 684.339 1083.99 682.193 1082.31C686.104 1069.2 690.552 1055.94 695.531 1042.52C700.516 1029.11 705.839 1015.77 711.516 1002.51C717.193 989.245 723.109 976.135 729.281 963.172C735.453 950.224 741.646 937.688 747.854 925.573C749.385 923.12 751.109 921.891 753.026 921.891C754.87 921.891 756.552 923.042 758.089 925.344C763.375 933.776 767.974 942.536 771.885 951.62C775.797 960.703 779.229 969.964 782.182 979.391C785.125 988.818 787.698 998.344 789.88 1007.96C792.068 1017.59 794.078 1027.15 795.922 1036.66C798.375 1029.22 801.188 1021.61 804.37 1013.83C807.552 1006.05 810.927 998.271 814.49 990.49C818.057 982.708 821.792 975.078 825.703 967.604C829.615 960.13 833.526 952.943 837.432 946.042C839.5 942.359 841.859 938.682 844.505 935C847.151 931.323 850.141 928.01 853.474 925.057C856.807 922.104 860.526 919.693 864.63 917.813C868.724 915.932 873.271 914.995 878.255 914.995C878.557 914.995 879.057 915.167 879.75 915.51C880.438 915.854 881.13 916.26 881.818 916.719C882.51 917.177 883.177 917.599 883.833 917.984C884.479 918.37 885 918.557 885.385 918.557Z" fill="#1B503E"/>
<path d="M914.594 1067.7C920.724 1066.4 926.516 1063.51 931.953 1059.02C937.401 1054.54 942.536 1049.06 947.365 1042.58C952.193 1036.1 956.698 1028.93 960.875 1021.07C965.057 1013.22 968.964 1005.28 972.604 997.271C976.25 989.26 979.599 981.479 982.667 973.927C985.729 966.375 988.536 959.667 991.057 953.807C993.589 947.943 995.906 943.208 998.016 939.604C1000.13 936 1001.99 934.161 1003.59 934.083C1004.44 934.005 1005.46 934.198 1006.65 934.656C1007.83 935.115 1008.89 935.734 1009.81 936.495C1008.27 947 1006.16 957.755 1003.48 968.755C1000.8 979.755 997.464 990.625 993.474 1001.35C989.49 1012.09 984.813 1022.45 979.448 1032.46C974.078 1042.46 967.948 1051.72 961.047 1060.23C954.151 1068.74 946.464 1076.29 937.995 1082.89C929.521 1089.48 920.146 1094.69 909.875 1098.53C900.057 1093.92 891.552 1088.92 884.349 1083.52C877.141 1078.11 871.141 1072.42 866.354 1066.44C861.563 1060.46 857.995 1054.23 855.656 1047.76C853.318 1041.28 852.151 1034.7 852.151 1028.03C852.151 1021.9 852.802 1015.71 854.104 1009.46C855.411 1003.21 857.188 996.984 859.453 990.776C861.714 984.562 864.323 978.432 867.271 972.375C870.219 966.318 873.328 960.417 876.589 954.667C879.844 948.917 883.161 943.359 886.536 937.995C889.906 932.625 893.125 927.568 896.193 922.813C898.953 918.443 901.5 915.224 903.839 913.151C906.177 911.083 908.651 910.047 911.255 910.047C912.484 910.047 914.073 910.453 916.026 911.255C917.984 912.062 920.031 913.057 922.182 914.245C924.328 915.437 926.401 916.755 928.391 918.214C930.38 919.672 932.031 921.052 933.333 922.354C932.411 926.188 930.807 930.651 928.505 935.75C926.208 940.849 923.578 946.37 920.63 952.307C917.677 958.25 914.594 964.495 911.37 971.052C908.151 977.604 905.198 984.26 902.521 991.005C899.828 997.75 897.63 1004.48 895.901 1011.19C894.182 1017.9 893.318 1024.39 893.318 1030.68C893.318 1033.82 893.792 1037.17 894.755 1040.74C895.708 1044.3 897.115 1047.79 898.953 1051.2C900.797 1054.61 903.036 1057.76 905.682 1060.64C908.328 1063.51 911.297 1065.86 914.594 1067.7Z" fill="#1B503E"/>
<path d="M1048.21 971.109C1046.6 976.557 1044.78 982.458 1042.75 988.818C1040.72 995.182 1038.61 1001.72 1036.42 1008.43C1034.23 1015.14 1032.06 1021.9 1029.87 1028.72C1027.69 1035.55 1025.55 1042.14 1023.49 1048.5C1021.42 1054.86 1019.5 1060.84 1017.74 1066.44C1015.97 1072.04 1014.48 1076.98 1013.25 1081.28C1012.64 1083.5 1012.1 1085.17 1011.64 1086.28C1011.18 1087.39 1010.27 1087.94 1008.89 1087.94C1006.43 1087.94 1003.82 1087.27 1001.06 1085.93C998.302 1084.59 995.776 1082.94 993.474 1080.98C991.177 1079.03 989.276 1077 987.786 1074.89C986.286 1072.78 985.536 1070.92 985.536 1069.31C985.536 1062.88 986.193 1056.11 987.495 1049.02C988.797 1041.93 990.505 1034.68 992.609 1027.29C994.719 1019.89 997.115 1012.35 999.797 1004.69C1002.48 997.021 1005.22 989.354 1008.02 981.693C1010.82 974.026 1013.52 966.417 1016.13 958.865C1018.73 951.312 1021.04 943.932 1023.03 936.729C1023.56 934.813 1024.04 933.089 1024.46 931.552C1024.89 930.021 1025.42 928.734 1026.07 927.698C1026.73 926.667 1027.63 925.859 1028.78 925.286C1029.93 924.708 1031.5 924.349 1033.49 924.193C1036.18 926.036 1039.3 928.87 1042.86 932.703C1046.43 936.536 1050.15 940.812 1054.02 945.526C1057.89 950.24 1061.76 955.089 1065.63 960.073C1069.51 965.057 1073.11 969.599 1076.44 973.698C1079.78 977.802 1082.73 981.172 1085.3 983.818C1087.86 986.464 1089.76 987.786 1090.99 987.786C1091.83 987.323 1093.42 986.099 1095.76 984.104C1098.1 982.115 1100.95 979.62 1104.33 976.63C1107.7 973.641 1111.49 970.302 1115.71 966.625C1119.93 962.943 1124.34 959.172 1128.93 955.302C1133.54 951.427 1138.23 947.615 1143.03 943.854C1147.81 940.104 1152.47 936.651 1156.99 933.51C1161.52 930.365 1165.79 927.682 1169.82 925.458C1173.84 923.234 1177.43 921.703 1180.57 920.859C1182.41 922.24 1184.34 923.714 1186.38 925.286C1188.4 926.859 1190.34 928.547 1192.18 930.344C1194.03 932.146 1195.64 934.104 1197.02 936.208C1198.39 938.318 1199.39 940.563 1200 942.938C1197.7 947.693 1195.1 953.365 1192.18 959.958C1189.27 966.552 1186.22 973.719 1183.04 981.458C1179.86 989.203 1176.56 997.312 1173.15 1005.78C1169.74 1014.26 1166.38 1022.7 1163.09 1031.14C1159.79 1039.57 1156.59 1047.76 1153.48 1055.69C1150.38 1063.62 1147.53 1070.95 1144.92 1077.65C1142.31 1084.36 1140.01 1090.24 1138.02 1095.3C1136.03 1100.36 1134.46 1104.2 1133.31 1106.8C1130.62 1106.8 1127.73 1106.47 1124.63 1105.83C1121.52 1105.17 1118.63 1104.22 1115.94 1102.95C1113.26 1101.68 1111.03 1100.07 1109.28 1098.12C1107.51 1096.17 1106.63 1093.85 1106.63 1091.17C1106.63 1088.4 1107.2 1084.67 1108.35 1079.95C1109.51 1075.24 1111 1069.95 1112.83 1064.08C1114.68 1058.22 1116.79 1052.01 1119.16 1045.45C1121.54 1038.9 1123.95 1032.4 1126.4 1025.96C1132.23 1010.86 1138.83 994.609 1146.18 977.208L1094.79 1014.92C1093.25 1014.92 1091.28 1014.1 1088.86 1012.45C1086.45 1010.8 1083.78 1008.68 1080.87 1006.07C1077.96 1003.46 1074.93 1000.53 1071.78 997.271C1068.64 994.016 1065.59 990.755 1062.64 987.495C1059.69 984.24 1056.95 981.172 1054.42 978.297C1051.89 975.422 1049.82 973.026 1048.21 971.109Z" fill="#1B503E"/>
<path d="M997.844 727.339C997.844 770.938 829.609 806.281 622.078 806.281C414.552 806.281 246.318 770.938 246.318 727.339C246.318 683.74 414.552 648.396 622.078 648.396C829.609 648.396 997.844 683.74 997.844 727.339Z" fill="#E1E6E1"/>
<path d="M618.922 402.099C587.344 376.833 568.401 383.151 555.771 383.151C543.135 383.151 526.297 392.271 509.453 392.271C492.615 392.271 467.354 357.891 442.089 332.625C416.828 307.365 328.417 225.266 290.521 225.266C252.63 225.266 240 250.526 240 275.792C240 301.052 347.359 357.891 397.885 395.781C448.406 433.672 479.984 471.568 479.984 509.458C479.984 547.349 543.135 670.151 618.922 712.953C694.703 755.755 783.12 793.651 858.906 793.651C934.688 793.651 1027.94 768.13 1060.99 736.813C1080.59 718.245 1097.12 676.922 1092.57 642.083C1086.65 596.703 1018.43 552.26 1010.47 559.979C1010.47 559.979 1001 563.141 1019.95 582.083C1038.9 601.031 1045.21 607.344 1045.21 626.292C1045.21 645.24 1032.58 670.5 969.422 670.5C906.271 670.5 836.802 645.24 742.073 607.344C647.339 569.453 527.349 487.354 527.349 443.146C527.349 398.938 558.927 398.938 577.87 398.938C596.818 398.938 618.922 402.099 618.922 402.099Z" fill="#1B503E"/>
<path d="M633.792 291.182C633.792 291.182 668.411 284.63 674.026 286.505C679.641 288.375 683.38 318.312 680.573 323.927C677.766 329.542 642.214 329.542 642.214 329.542C642.214 329.542 643.151 343.578 646.891 351.062C650.635 358.547 643.151 367.901 627.245 366.031C611.339 364.161 587.016 349.187 583.271 321.12C579.526 293.052 599.177 267.792 610.401 265.922C621.63 264.052 630.536 262.177 632.167 273.406C633.792 284.63 633.792 291.182 633.792 291.182Z" fill="#B9AD8E"/>
<path d="M786.042 601.292C772.526 582.974 769.469 571.63 781.682 542.411C801.307 561.604 811.339 571.198 802.615 601.292C796.51 589.948 792.151 584.719 786.479 580.792C789.901 589.948 786.042 601.292 786.042 601.292Z" fill="#81CE3C"/>
<path d="M731.38 513.786C716.984 517.99 700.13 515.271 687.182 508.089C678.688 503.38 666.156 494.161 663.656 483.896C688.714 482.188 713.385 478.385 737.333 470.573C746.052 467.724 765.63 463.604 773.901 455.359C775.661 481.776 756.724 506.38 731.38 513.786ZM676.208 433.771C688.005 426.63 697.188 434.792 697.615 447.203C697.714 449.969 698.328 454.297 694.781 452.089C692.776 450.833 690.958 449.234 689.083 447.802C686.422 445.771 682.161 442.698 678.526 443.833C675.073 444.911 674.677 448.016 674.047 451.229C673.557 453.755 673.115 456.281 672.5 458.781C671.5 462.88 671.12 464.266 668.016 460.703C667.396 459.995 666.693 459.745 666.021 459.792C663.891 449.641 666.599 439.578 676.208 433.771ZM740.708 417.682C750.349 415.057 761.927 418.906 764.297 429.37C764.536 430.417 765.125 438.188 763.036 437.677C761.083 437.203 759.156 435.495 757.542 434.37C753.729 431.708 749.891 428.703 745.198 427.87C742.406 427.375 738.693 428.24 737.182 430.88C735.698 433.479 732.74 448.302 728.167 444.526C727.802 444.229 727.422 444.036 727.036 443.927C724.073 431.99 728.057 421.135 740.708 417.682ZM787.406 416.63C777.661 396.656 758.37 385.052 738.198 377.781C719.526 371.052 694.62 367.891 679.214 382.714C645.344 396.578 630.5 445.599 639.281 479.469C650.641 523.25 707.245 542.656 746.531 527.219C788.63 510.667 806.609 456 787.406 416.63Z" fill="#FBC324"/>
<path d="M906.177 560.24C896.854 557.755 882.547 551.318 872.75 553.552C882.151 518.151 897.563 482.714 902.438 446.349C923.589 454.542 945.885 460.125 967.755 466.036C968.234 466.167 968.682 466.193 969.109 466.177C965.755 480.49 961.365 493.594 955.912 507.417C948.083 527.245 943.333 548.536 937.385 569.052C926.984 566.099 916.62 563.021 906.177 560.24ZM890.995 585.505C887.635 582.604 889.589 578.401 892.203 575.776C894.448 573.51 897.302 572.245 900.297 571.901C900.609 572.422 901.057 572.911 901.698 573.313C912.984 580.479 900.406 593.646 890.995 585.505ZM927.839 430.578C933.911 432.521 940.109 434.099 946.037 436.484C949.573 437.901 953.109 439.417 956.385 441.391C956.484 441.448 956.651 441.563 956.839 441.703C956.557 441.839 956.224 441.99 955.75 442.151C947.891 444.833 939.422 440.359 932.662 436.531C930.229 435.156 927.359 433.474 925.354 431.313C926.26 431.12 927.068 430.922 927.839 430.578ZM976.26 429.37C958.682 419.286 933.781 416.302 913.922 412.219C905.74 410.542 886.333 408.172 889.016 420.307C888.318 420.859 887.792 421.672 887.646 422.74C881.995 464.255 867.115 503.604 854.458 543.313C849.37 559.271 833.896 588.375 851.958 600.927C863.453 608.906 879.682 611.901 892.875 615.646C902.974 618.51 915.208 621.787 925.797 619.453C944.563 615.313 950.063 596.781 955.307 580.484C965.708 548.161 974.927 515.391 985.203 483.005C991.667 462.641 997.724 441.667 976.26 429.37Z" fill="#2F4AA6"/>
<path d="M1024.48 504.396C1029.96 468.177 1039.41 451.812 1086.56 432.5C1087.02 476.656 1087.49 498.984 1043.32 523.266C1049.29 503.422 1050.29 492.505 1048.31 481.589C1041.77 495.896 1024.48 504.396 1024.48 504.396Z" fill="#81CE3C"/>
<path d="M818.964 300.177C816.516 301.245 821.995 314.531 821.995 314.542C825.453 325.391 829.448 367.719 829.099 384.333C827.964 386.844 825.547 399.578 832.313 396.599C832.37 396.573 832.375 396.521 832.427 396.49C832.937 397.307 834.005 397.771 835.141 397.073C865.312 378.609 896.755 361.651 925.906 341.604C927.375 340.599 927.729 337.885 926.078 336.818C906.464 324.167 883.495 320.62 862.141 312.057C851.203 307.672 831.083 294.906 818.964 300.177Z" fill="#B41744"/>
</svg>
