<?xml version="1.0" encoding="UTF-8" standalone="no"?>
<svg
   width="1000pt"
   height="1000pt"
   viewBox="0 0 999.99998 999.99998"
   version="1.1"
   id="svg16"
   xmlns="http://www.w3.org/2000/svg"
   xmlns:svg="http://www.w3.org/2000/svg">
  <defs
     id="defs16" />
  <path
     fill-rule="nonzero"
     fill="#1b503e"
     fill-opacity="1"
     d="m 159.07812,824.41016 c -1.55078,0 -3.59375,-0.41797 -6.12109,-1.25 -2.53125,-0.83594 -5.32031,-1.9961 -8.36719,-3.4961 -3.05078,-1.49219 -6.26562,-3.23047 -9.66015,-5.21484 -3.39453,-1.98438 -6.74219,-4.125 -10.04688,-6.42578 -3.30468,-2.30078 -6.45312,-4.70313 -9.4414,-7.20313 -2.99219,-2.5 -5.64063,-4.98437 -7.9375,-7.46094 -2.29688,-2.46875 -4.12891,-4.87109 -5.47266,-7.19921 -1.35547,-2.32813 -2.03125,-4.5 -2.03125,-6.51172 0,-6.09375 1.16797,-12.375 3.49609,-18.84375 2.32422,-6.46875 5.54688,-12.76563 9.66016,-18.88672 4.10938,-6.125 8.99609,-11.90235 14.66016,-17.33594 5.66406,-5.43359 11.84375,-10.19141 18.54296,-14.27344 6.69922,-4.08203 13.79688,-7.3164 21.30469,-9.70312 7.5,-2.38672 15.10547,-3.57813 22.8086,-3.57813 3.33593,0 6.28125,0.54688 8.83984,1.63672 2.55859,1.09375 4.71484,2.60547 6.46875,4.52735 1.75391,1.92968 3.07812,4.21484 3.96875,6.85937 0.89062,2.64453 1.33594,5.51953 1.33594,8.62109 0,1.55469 -0.27344,3.01954 -0.82032,4.39844 -0.54687,1.38281 -1.26562,2.66016 -2.15625,3.83985 -0.89062,1.17968 -1.89843,2.27343 -3.01953,3.27734 -1.12109,1.00781 -2.2539,1.91406 -3.40625,2.71875 -2.76172,1.89453 -5.89453,3.53516 -9.39843,4.91406 l -14.83594,-18.19922 c -3.44922,0.92188 -6.98438,2.48828 -10.60938,4.70313 -3.62109,2.21094 -7.14453,4.87109 -10.5625,7.97656 -3.42187,3.10547 -6.65625,6.53906 -9.70312,10.30469 -3.05078,3.76562 -5.70703,7.70703 -7.98047,11.8164 -2.26953,4.11329 -4.06641,8.26563 -5.39063,12.46094 -1.32031,4.19922 -1.97656,8.25391 -1.97656,12.16016 0,1.4414 0.52735,3.14844 1.59375,5.13281 1.0625,1.98438 2.44141,4.03906 4.14063,6.16797 1.6914,2.12891 3.64843,4.22656 5.86328,6.29687 2.21094,2.06641 4.48437,3.9375 6.80859,5.60547 2.33203,1.66797 4.60156,3.00391 6.81641,4.00782 2.21094,1.00781 4.21094,1.51171 5.99609,1.51171 1.03516,0 2.62891,-0.53125 4.78516,-1.59765 2.15234,-1.0625 4.68359,-2.45703 7.58984,-4.17969 2.90235,-1.72656 6.0625,-3.67969 9.48438,-5.86719 3.42187,-2.18359 6.87109,-4.4414 10.35156,-6.76953 3.47656,-2.32812 6.90234,-4.58594 10.26172,-6.76953 3.36328,-2.18359 6.47265,-4.14062 9.3125,-5.86719 2.84765,-1.72265 5.30469,-3.11718 7.375,-4.18359 2.07031,-1.0625 3.53906,-1.59375 4.40234,-1.59375 1.26172,0 1.89844,0.66406 1.89844,1.98437 0,0.46094 -0.14844,1.20704 -0.43359,2.24219 -0.63672,2.24219 -1.83985,4.65625 -3.6211,7.24219 -1.78515,2.58984 -3.95312,5.25 -6.51562,7.98047 -2.5586,2.73047 -5.42969,5.46094 -8.6211,8.1914 -3.1914,2.73438 -6.54297,5.36329 -10.05078,7.89063 -3.50781,2.53125 -7.08594,4.89062 -10.73437,7.07422 -3.65235,2.1875 -7.20313,4.08203 -10.65235,5.6914 -3.44922,1.60938 -6.72656,2.875 -9.83203,3.79688 -3.10547,0.91797 -5.89453,1.37891 -8.36719,1.37891"
     id="path1" />
  <path
     fill-rule="nonzero"
     fill="#1b503e"
     fill-opacity="1"
     d="m 259.72656,766.53906 c -0.80859,-0.51953 -1.60937,-0.77734 -2.41406,-0.77734 -0.69141,0 -1.36719,0.17187 -2.02734,0.51953 -0.66407,0.34375 -1.25,0.77734 -1.76954,1.29297 -2.125,2.24219 -4.125,4.6289 -5.99218,7.16015 -1.8711,2.53125 -3.49219,5.10157 -4.875,7.71485 -1.37891,2.61719 -2.47266,5.21875 -3.27735,7.80859 -0.80468,2.58594 -1.20703,5.03125 -1.20703,7.33203 0,0.63282 0.23047,1.14844 0.69141,1.55078 0.45703,0.40235 1.0039,0.60157 1.63672,0.60157 0.92187,0 2.07031,-0.39844 3.45312,-1.20703 1.37891,-0.80079 2.78906,-1.79688 4.22656,-2.97266 1.4336,-1.17969 2.83204,-2.42969 4.1836,-3.75391 1.34765,-1.32031 2.45703,-2.5 3.3164,-3.53515 1.4961,-1.78125 2.81641,-3.57813 3.96875,-5.39063 1.14844,-1.80859 2.24219,-3.72265 3.27735,-5.73437 -0.92188,-0.7461 -1.59375,-1.53907 -2.02735,-2.3711 -0.42968,-0.83593 -0.73437,-1.69922 -0.90625,-2.58984 -0.17187,-0.89063 -0.24218,-1.80859 -0.21484,-2.75781 0.0273,-0.94922 0.0117,-1.91016 -0.043,-2.89063 m 47.00391,12.50391 c -0.86328,2.1875 -2.08203,4.19922 -3.66406,6.03906 -1.58204,1.83984 -3.36719,3.42188 -5.35157,4.74219 -1.98047,1.32422 -4.0664,2.34375 -6.25,3.0625 -2.18359,0.72265 -4.3125,1.07812 -6.38281,1.07812 -2.70312,0 -5.0625,-0.63281 -7.07031,-1.89453 -1.66797,3.96485 -3.57813,7.51563 -5.73438,10.64844 -2.16015,3.13281 -4.57422,5.98047 -7.25,8.53906 -2.66797,2.5586 -5.57422,4.90235 -8.70703,7.02735 -3.13672,2.1289 -6.45703,4.16796 -9.96094,6.125 -0.51562,0.28515 -1.17968,0.42968 -1.98437,0.42968 -1.32422,0 -2.875,-0.40234 -4.66016,-1.20703 -1.78125,-0.80469 -3.66406,-1.83984 -5.64843,-3.10547 -1.98047,-1.26172 -3.98047,-2.67187 -5.99219,-4.22265 -2.01563,-1.55469 -3.91016,-3.07813 -5.69141,-4.57422 -1.78125,-1.49219 -3.39453,-2.8711 -4.83203,-4.13672 -1.43359,-1.26563 -2.55469,-2.24219 -3.35937,-2.93359 -0.17188,-0.86329 -0.34766,-1.82422 -0.51954,-2.89063 -0.17187,-1.0625 -0.3164,-2.125 -0.42968,-3.19141 -0.11719,-1.0625 -0.20313,-2.05468 -0.25782,-2.97265 -0.0586,-0.92188 -0.0859,-1.64063 -0.0859,-2.16016 0,-2.92969 0.48828,-5.94922 1.46484,-9.05469 0.97656,-3.10156 2.22656,-6.13671 3.75,-9.09765 1.51953,-2.96094 3.21875,-5.80469 5.08594,-8.53906 1.87109,-2.73047 3.69531,-5.16016 5.47656,-7.28516 1.4375,-1.89844 3.37891,-3.86719 5.82422,-5.91016 2.44531,-2.03906 5.11719,-3.8789 8.02344,-5.51953 2.89843,-1.63672 5.89062,-2.98828 8.96875,-4.05469 3.07422,-1.0625 5.96093,-1.59375 8.66406,-1.59375 2.93359,0 5.76562,0.86329 8.49609,2.58594 2.73047,1.72656 5.16016,3.8711 7.28907,6.42578 2.1289,2.5586 3.83593,5.30469 5.13281,8.23828 1.29297,2.92969 1.9375,5.63672 1.9375,8.10547 0,0.51953 -0.0274,1.10938 -0.0859,1.76953 -0.0586,0.66016 -0.12891,1.32422 -0.21484,1.98047 -0.0859,0.66407 -0.19922,1.3086 -0.34375,1.94141 -0.14453,0.63281 -0.30469,1.15234 -0.47657,1.55469 0.23047,0.17187 0.41797,0.30078 0.5625,0.38672 0.14454,0.0898 0.32813,0.17578 0.5586,0.26171 0.23047,0.0859 0.54687,0.14063 0.94922,0.17188 0.40234,0.0273 1.0039,0.043 1.8125,0.043 0.85937,0 1.7539,-0.043 2.67187,-0.12891 0.91797,-0.0859 1.88281,-0.33203 2.89063,-0.73437 1.0039,-0.40235 2.02343,-1.00782 3.05859,-1.8125 1.03906,-0.80469 2.12891,-1.89844 3.28125,-3.27735 z m 0,0"
     id="path2" />
  <path
     fill-rule="nonzero"
     fill="#1b503e"
     fill-opacity="1"
     d="m 334.58594,766.53906 c -0.80469,-0.51953 -1.61328,-0.77734 -2.41797,-0.77734 -0.6875,0 -1.36328,0.17187 -2.02344,0.51953 -0.66406,0.34375 -1.25391,0.77734 -1.76562,1.29297 -2.12891,2.24219 -4.12891,4.6289 -5.9961,7.16015 -1.87109,2.53125 -3.49609,5.10157 -4.87109,7.71485 -1.38281,2.61719 -2.47656,5.21875 -3.28125,7.80859 -0.80469,2.58594 -1.20703,5.03125 -1.20703,7.33203 0,0.63282 0.23047,1.14844 0.6914,1.55078 0.46094,0.40235 1.00782,0.60157 1.63672,0.60157 0.91797,0 2.07422,-0.39844 3.44922,-1.20703 1.37891,-0.80079 2.78906,-1.79688 4.22656,-2.97266 1.4375,-1.17969 2.83203,-2.42969 4.1836,-3.75391 1.35156,-1.32031 2.45703,-2.5 3.32031,-3.53515 1.49219,-1.78125 2.81641,-3.57813 3.96875,-5.39063 1.14844,-1.80859 2.24219,-3.72265 3.27734,-5.73437 -0.92187,-0.7461 -1.59765,-1.53907 -2.02734,-2.3711 -0.43359,-0.83593 -0.73438,-1.69922 -0.90625,-2.58984 -0.17188,-0.89063 -0.24609,-1.80859 -0.21875,-2.75781 0.0312,-0.94922 0.0195,-1.91016 -0.0391,-2.89063 m 47.0039,12.50391 c -0.86328,2.1875 -2.08593,4.19922 -3.66797,6.03906 -1.58203,1.83984 -3.36328,3.42188 -5.34765,4.74219 -1.98047,1.32422 -4.06641,2.34375 -6.25,3.0625 -2.1875,0.72265 -4.31641,1.07812 -6.38281,1.07812 -2.70313,0 -5.0586,-0.63281 -7.07422,-1.89453 -1.66797,3.96485 -3.57813,7.51563 -5.73438,10.64844 -2.15234,3.13281 -4.57031,5.98047 -7.24219,8.53906 -2.67578,2.5586 -5.58203,4.90235 -8.71093,7.02735 -3.13672,2.1289 -6.45313,4.16796 -9.96485,6.125 -0.51562,0.28515 -1.17968,0.42968 -1.98437,0.42968 -1.32031,0 -2.875,-0.40234 -4.65235,-1.20703 -1.78515,-0.80469 -3.66796,-1.83984 -5.64843,-3.10547 -1.98828,-1.26172 -3.98438,-2.67187 -5.9961,-4.22265 -2.01172,-1.55469 -3.91015,-3.07813 -5.69531,-4.57422 -1.78125,-1.49219 -3.38672,-2.8711 -4.82812,-4.13672 -1.4375,-1.26563 -2.5586,-2.24219 -3.36329,-2.93359 -0.17187,-0.86329 -0.34375,-1.82422 -0.51953,-2.89063 -0.17187,-1.0625 -0.3125,-2.125 -0.42968,-3.19141 -0.11329,-1.0625 -0.20313,-2.05468 -0.25782,-2.97265 -0.0547,-0.92188 -0.0859,-1.64063 -0.0859,-2.16016 0,-2.92969 0.48828,-5.94922 1.46484,-9.05469 0.97656,-3.10156 2.23047,-6.13671 3.75,-9.09765 1.52734,-2.96094 3.22266,-5.80469 5.09375,-8.53906 1.86328,-2.73047 3.69141,-5.16016 5.47266,-7.28516 1.4375,-1.89844 3.3789,-3.86719 5.82421,-5.91016 2.44141,-2.03906 5.11329,-3.8789 8.01954,-5.51953 2.90234,-1.63672 5.89062,-2.98828 8.96875,-4.05469 3.07812,-1.0625 5.96484,-1.59375 8.66796,-1.59375 2.9336,0 5.76563,0.86329 8.4961,2.58594 2.73047,1.72656 5.16015,3.8711 7.28515,6.42578 2.12891,2.5586 3.83985,5.30469 5.13282,8.23828 1.29297,2.92969 1.9414,5.63672 1.9414,8.10547 0,0.51953 -0.0273,1.10938 -0.0859,1.76953 -0.0586,0.66016 -0.13282,1.32422 -0.21875,1.98047 -0.0859,0.66407 -0.19922,1.3086 -0.34375,1.94141 -0.14454,0.63281 -0.30079,1.15234 -0.47266,1.55469 0.23047,0.17187 0.41406,0.30078 0.55859,0.38672 0.14453,0.0898 0.33203,0.17578 0.5625,0.26171 0.23047,0.0859 0.54688,0.14063 0.94922,0.17188 0.39844,0.0273 1.00391,0.043 1.8125,0.043 0.85938,0 1.75,-0.043 2.67188,-0.12891 0.91797,-0.0859 1.88281,-0.33203 2.89062,-0.73437 1.00391,-0.40235 2.02735,-1.00782 3.0625,-1.8125 1.03516,-0.80469 2.1211,-1.89844 3.27344,-3.27735 z m 0,0"
     id="path3" />
  <path
     fill-rule="nonzero"
     fill="#1b503e"
     fill-opacity="1"
     d="m 404.44141,775.42187 c 2.1289,-0.57421 4.05468,-1.26171 5.77734,-2.07031 1.4375,-0.6875 2.75781,-1.51953 3.96875,-2.5 1.20703,-0.97656 1.8125,-2.1289 1.8125,-3.44922 0,-0.74609 -0.40625,-1.32031 -1.21094,-1.72656 -0.80469,-0.39844 -1.58203,-0.60156 -2.32812,-0.60156 -0.97657,0 -1.96875,0.25781 -2.97657,0.77344 -1.0039,0.51953 -1.96875,1.12109 -2.88671,1.8125 -0.91797,0.6914 -1.74219,1.41015 -2.46094,2.15625 -0.71875,0.75 -1.25,1.32421 -1.59375,1.72656 z m 18.10937,-104.69921 c -2.70312,7.82031 -5.33203,15.68359 -7.89062,23.58593 -2.5586,7.90625 -4.94532,15.59766 -7.15625,23.07032 -2.21485,7.47656 -4.17188,14.60546 -5.86329,21.38671 -1.69921,6.78516 -3.03906,12.96875 -4.01171,18.54688 1.72265,-2.12891 3.43359,-4.09766 5.13281,-5.91016 1.6914,-1.8125 3.53125,-3.39062 5.51562,-4.74218 1.98438,-1.35157 4.19532,-2.41407 6.64063,-3.19141 2.44531,-0.77344 5.27344,-1.16406 8.49609,-1.16406 1.83985,0 3.57813,0.28906 5.21875,0.86328 1.63672,0.57422 3.07813,1.48047 4.3125,2.71484 1.23828,1.23828 2.21094,2.80469 2.9336,4.69922 0.71484,1.89844 1.07812,4.17188 1.07812,6.81641 0,3.96484 -0.80859,7.5039 -2.41797,10.60547 -1.60937,3.10546 -3.70703,5.79296 -6.29297,8.0664 -2.58984,2.27344 -5.46484,4.15235 -8.625,5.64844 -3.16406,1.49609 -6.29687,2.58594 -9.40234,3.27734 2.12891,2.875 4.05469,5.49219 5.78125,7.84766 1.72266,2.35937 3.375,4.35547 4.95703,5.99219 1.58203,1.64062 3.17578,2.90625 4.78516,3.79687 1.61328,0.89453 3.36718,1.33594 5.26172,1.33594 2.41406,0 4.88671,-0.70313 7.41796,-2.11328 2.52735,-1.40625 5.03125,-3.23438 7.50391,-5.47656 2.47266,-2.24219 4.87109,-4.72657 7.19922,-7.46094 2.33203,-2.73047 4.48437,-5.38672 6.46875,-7.97266 1.98437,-2.58984 3.75,-4.97656 5.30469,-7.16015 1.55078,-2.1836 2.8164,-3.85157 3.79297,-5.00391 l 6.46875,8.53906 c -1.60938,2.81641 -3.40625,5.9375 -5.39063,9.35938 -1.98047,3.41797 -4.13672,6.89843 -6.46484,10.43359 -2.33203,3.53516 -4.83203,6.97266 -7.50391,10.30859 -2.67578,3.33204 -5.47656,6.29297 -8.41016,8.87891 -2.93359,2.58984 -6.02343,4.67188 -9.27343,6.25391 -3.25,1.58203 -6.59766,2.37109 -10.04297,2.37109 -4.02735,0 -7.60547,-0.38672 -10.74219,-1.16406 -3.13281,-0.77344 -5.91797,-1.8086 -8.36328,-3.10547 -2.44531,-1.29297 -4.60156,-2.82813 -6.46484,-4.61328 -1.8711,-1.78125 -3.56641,-3.67969 -5.09375,-5.69141 -1.52344,-2.01172 -2.94532,-4.09765 -4.26563,-6.2539 -1.32422,-2.15235 -2.61719,-4.26954 -3.88281,-6.33985 -1.4375,1.32813 -2.61719,2.96485 -3.53516,4.91797 -0.91797,1.95313 -1.7539,4.02734 -2.5,6.20703 -0.75,2.1875 -1.48437,4.375 -2.19922,6.55469 -0.72265,2.1875 -1.59765,4.15625 -2.63281,5.91016 -1.03516,1.7539 -2.30078,3.17578 -3.79297,4.26953 -1.49609,1.09375 -3.36719,1.63672 -5.60937,1.63672 -1.14844,0 -2.17969,-0.0547 -3.10157,-0.17188 -0.91796,-0.11328 -1.69531,-0.41406 -2.32812,-0.90625 -0.63281,-0.48828 -1.10938,-1.20703 -1.42578,-2.15234 -0.3125,-0.94922 -0.47266,-2.25782 -0.47266,-3.92578 0,-2.70313 0.33203,-6.83985 0.99219,-12.41797 0.66016,-5.57813 1.71094,-12.16407 3.14844,-19.75391 1.43359,-7.58594 3.27343,-15.96484 5.51953,-25.13672 2.24219,-9.17187 4.91797,-18.69922 8.01953,-28.58984 3.10547,-9.89063 6.69531,-19.9375 10.78125,-30.14453 4.08203,-10.20703 8.64844,-20.10938 13.71094,-29.71094 z m 0,0"
     id="path4" />
  <path
     fill-rule="nonzero"
     fill="#1b503e"
     fill-opacity="1"
     d="m 491.80859,712.55078 c 1.14844,-0.0547 2.29688,-0.14453 3.44532,-0.26172 0.98046,-0.0547 2.04296,-0.11328 3.1914,-0.17187 1.15235,-0.0547 2.21485,-0.0859 3.19531,-0.0859 1.26563,0 2.58594,0.47656 3.96485,1.42578 1.3789,0.94922 2.64453,2.25781 3.79297,3.92188 1.15234,1.67187 2.10156,3.625 2.84765,5.86328 0.75,2.24609 1.1211,4.66015 1.1211,7.24609 0,1.89844 -0.51563,3.49219 -1.55078,4.78906 -1.03516,1.29297 -2.84766,1.9375 -5.4375,1.9375 -2.46875,0 -4.79688,-0.35547 -6.98438,-1.07812 -2.18359,-0.71875 -4.09375,-1.72266 -5.73437,-3.01953 -1.63672,-1.28907 -2.9336,-2.82813 -3.88282,-4.61328 -0.94531,-1.78125 -1.42187,-3.70704 -1.42187,-5.77735 0,-1.78125 0.30469,-3.50781 0.90625,-5.17578 0.60156,-1.66406 1.45312,-3.33203 2.54687,-5 m 31.65235,58.21484 c 0.80468,1.15235 1.63672,2.1875 2.5,3.10547 0.86328,0.91797 1.63672,1.69532 2.32422,2.32813 0.6914,0.63281 1.2539,1.15234 1.6875,1.55078 0.42968,0.40234 0.64453,0.66406 0.64453,0.77734 -0.86328,1.89844 -2.22657,4.3125 -4.09766,7.2461 -1.86719,2.92968 -4.02734,6.0664 -6.46484,9.39843 -2.44532,3.33594 -5.0625,6.6875 -7.85157,10.04688 -2.78906,3.36328 -5.53515,6.41406 -8.23437,9.14453 -2.70313,2.73047 -5.27344,4.94531 -7.71875,6.64063 -2.44531,1.69531 -4.52734,2.54296 -6.25391,2.54296 -1.09375,0 -2.49218,-0.24609 -4.18359,-0.73046 -1.69531,-0.49219 -3.52344,-1.125 -5.47656,-1.89844 -1.95313,-0.77735 -3.92188,-1.64063 -5.90625,-2.58594 -1.98438,-0.94922 -3.82422,-1.89844 -5.52344,-2.84766 -1.69531,-0.94921 -3.14844,-1.85546 -4.35547,-2.71875 -1.20703,-0.85937 -2.00781,-1.55078 -2.41016,-2.07031 -1.03515,-1.49219 -1.78125,-3.21875 -2.24218,-5.17187 -0.46094,-1.95313 -0.69141,-4.08203 -0.69141,-6.38282 0,-2.98828 0.43359,-6.48046 1.29297,-10.48046 0.86328,-3.9961 2.02734,-8.08985 3.49219,-12.28907 1.46875,-4.19531 3.14843,-8.33593 5.04687,-12.41797 1.89844,-4.08203 3.85156,-7.73437 5.86328,-10.95312 2.01172,-3.21875 4.02344,-5.82422 6.03907,-7.80469 2.00781,-1.98437 3.84765,-2.97656 5.51562,-2.97656 0.92188,0 1.89844,0.34375 2.93359,1.03516 1.55469,1.15234 2.89063,2.37109 4.01172,3.66406 1.1211,1.29687 2.08203,2.66015 2.88672,4.09765 0.80469,1.4375 1.4961,2.96094 2.07031,4.57032 0.57813,1.60937 1.125,3.30468 1.64063,5.08593 -0.97656,1.09375 -2.02344,2.54688 -3.14844,4.35938 -1.12109,1.80859 -2.25781,3.83594 -3.40625,6.07812 -1.15234,2.24219 -2.25781,4.61719 -3.32031,7.11719 -1.06641,2.5 -2.01563,5 -2.84375,7.50391 -0.83594,2.5 -1.49609,4.9414 -1.98438,7.32812 -0.48828,2.38672 -0.73437,4.53125 -0.73437,6.42578 0,1.55469 0.17187,2.875 0.51562,3.96875 2.875,-1.4375 6.03907,-3.49218 9.48829,-6.16796 3.44921,-2.67188 6.89843,-5.5625 10.35156,-8.66797 3.44531,-3.10547 6.78125,-6.25391 10.0039,-9.44141 3.21875,-3.19141 6.0625,-5.99609 8.53907,-8.41016"
     id="path5" />
  <path
     fill-rule="nonzero"
     fill="#1b503e"
     fill-opacity="1"
     d="m 664.03906,688.91797 c -2.53125,4.2539 -5.1914,9.05859 -7.98047,14.40234 -2.78906,5.34766 -5.61718,11.04297 -8.49609,17.07813 -2.87109,6.03906 -5.74609,12.30468 -8.62109,18.80078 -2.87891,6.5 -5.65235,13.02344 -8.32032,19.57812 -2.67578,6.55469 -5.20703,13.01172 -7.59375,19.36328 -2.38672,6.35157 -4.51562,12.40235 -6.3789,18.15235 -1.8711,5.75 -3.45313,11.08203 -4.7461,16 -1.29297,4.91406 -2.16797,9.21484 -2.6289,12.89062 -0.11719,0.63282 -0.41797,1.29688 -0.90625,1.98438 -0.48828,0.6914 -1.15235,1.32422 -1.98438,1.89844 -0.83203,0.57421 -1.78125,1.05078 -2.84375,1.42187 -1.0664,0.375 -2.22656,0.5625 -3.49219,0.5625 -1.49609,0 -3.09375,-0.34766 -4.78906,-1.03516 -1.69531,-0.6875 -3.375,-1.95312 -5.04297,-3.79687 -1.66797,-2.875 -3.33593,-6.75391 -5.0039,-11.64063 -1.66797,-4.88671 -3.29297,-10.26562 -4.875,-16.1289 -1.58203,-5.86328 -3.11719,-12 -4.61328,-18.41016 -1.4961,-6.41406 -2.91797,-12.59375 -4.26954,-18.54687 -1.35156,-5.94922 -2.65625,-11.42578 -3.92187,-16.42969 -1.26563,-5 -2.41797,-9.05469 -3.45313,-12.15625 -0.74609,2.41406 -1.72265,5.40234 -2.92968,8.96875 -1.20703,3.56641 -2.57422,7.5 -4.09766,11.81641 -1.52344,4.30859 -3.14844,8.83593 -4.875,13.58203 -1.72266,4.74218 -3.46094,9.51562 -5.21484,14.3125 -1.75391,4.80468 -3.48047,9.47656 -5.17188,14.01953 -1.69922,4.53906 -3.29687,8.7539 -4.78906,12.63281 -1.49609,3.88281 -2.83594,7.30078 -4.00781,10.26563 -1.17969,2.96093 -2.11719,5.24218 -2.8086,6.85546 -2.01172,-0.51953 -3.78906,-1.28125 -5.34375,-2.28515 -1.55468,-1.00781 -3.04687,-2.14453 -4.48437,-3.41016 -1.4375,-1.26172 -2.84375,-2.58594 -4.22656,-3.96484 -1.37891,-1.37891 -2.875,-2.70313 -4.48438,-3.96875 2.93359,-9.82813 6.26953,-19.77735 10.00391,-29.83985 3.73828,-10.05859 7.73047,-20.0625 11.98828,-30.01171 4.25781,-9.94532 8.69531,-19.77735 13.32422,-29.5 4.6289,-9.71094 9.27343,-19.11329 13.92968,-28.19922 1.14844,-1.83985 2.44141,-2.76172 3.87891,-2.76172 1.38281,0 2.64453,0.86328 3.79688,2.58984 3.96484,6.32422 7.41406,12.89453 10.34765,19.70703 2.9336,6.8125 5.50781,13.75782 7.72266,20.82813 2.20703,7.07031 4.13672,14.21484 5.77344,21.42969 1.64062,7.21875 3.14843,14.39062 4.53125,21.51953 1.83984,-5.57422 3.94921,-11.28125 6.33593,-17.1211 2.38672,-5.83203 4.91797,-11.66797 7.58985,-17.5039 2.67578,-5.83594 5.47656,-11.5586 8.41015,-17.16407 2.9336,-5.60546 5.86719,-10.99609 8.79688,-16.17187 1.55078,-2.76172 3.32031,-5.51953 5.30469,-8.28125 1.98437,-2.75781 4.22656,-5.24219 6.72656,-7.45703 2.5,-2.21485 5.28906,-4.02344 8.36719,-5.4336 3.07031,-1.41015 6.48046,-2.11328 10.21875,-2.11328 0.22656,0 0.60156,0.12891 1.12109,0.38672 0.51562,0.25781 1.03516,0.5625 1.55078,0.90625 0.51953,0.34375 1.01953,0.66016 1.51172,0.94922 0.48437,0.28906 0.875,0.42969 1.16406,0.42969"
     id="path6" />
  <path
     fill-rule="nonzero"
     fill="#1b503e"
     fill-opacity="1"
     d="m 685.94531,800.77734 c 4.59766,-0.97656 8.94141,-3.14453 13.01953,-6.51172 4.08594,-3.36328 7.9375,-7.47265 11.5586,-12.33203 3.62109,-4.85547 7,-10.23437 10.13281,-16.1289 3.13672,-5.89063 6.06641,-11.84375 8.79687,-17.85157 2.73438,-6.00781 5.2461,-11.84375 7.54688,-17.50781 2.29687,-5.66406 4.40234,-10.69531 6.29297,-15.08984 1.89844,-4.39844 3.63672,-7.94922 5.21875,-10.65235 1.58203,-2.70312 2.98047,-4.08203 4.18359,-4.14062 0.63281,-0.0586 1.39844,0.0859 2.28906,0.42969 0.89063,0.34375 1.67969,0.80859 2.3711,1.3789 -1.15235,7.87891 -2.73438,15.94532 -4.7461,24.19532 -2.01171,8.25 -4.51171,16.40234 -7.5039,24.44921 -2.98828,8.05079 -6.4961,15.82422 -10.51953,23.32813 -4.02735,7.50391 -8.625,14.44531 -13.80078,20.82812 -5.17188,6.38282 -10.9375,12.04688 -17.28907,16.99219 -6.35547,4.94531 -13.38672,8.85156 -21.08984,11.73047 -7.36328,-3.45312 -13.74219,-7.20312 -19.14453,-11.25781 -5.40625,-4.05469 -9.90625,-8.32422 -13.4961,-12.8086 -3.59375,-4.48046 -6.26953,-9.15625 -8.02343,-14.01171 -1.75391,-4.85938 -2.62891,-9.78907 -2.62891,-14.79297 0,-4.59766 0.48828,-9.23828 1.46484,-13.92578 0.98047,-4.6875 2.3125,-9.35938 4.01172,-14.01563 1.69532,-4.66016 3.65235,-9.25781 5.86328,-13.80078 2.21094,-4.54297 4.54297,-8.96875 6.98829,-13.28125 2.4414,-4.3125 4.92968,-8.48047 7.46093,-12.50391 2.52735,-4.02734 4.94141,-7.82031 7.24219,-11.38672 2.07031,-3.27734 3.98047,-5.6914 5.73438,-7.24609 1.7539,-1.55078 3.60937,-2.32812 5.5625,-2.32812 0.92187,0 2.11328,0.30468 3.57812,0.90625 1.46875,0.60546 3.00391,1.35156 4.61719,2.24218 1.60937,0.89453 3.16406,1.88282 4.65625,2.97657 1.49219,1.09375 2.73047,2.1289 3.70703,3.10546 -0.69141,2.875 -1.89453,6.22266 -3.62109,10.04688 -1.72266,3.82422 -3.69532,7.96484 -5.90625,12.41797 -2.21485,4.45703 -4.52735,9.14062 -6.94532,14.05859 -2.41406,4.91406 -4.6289,9.90625 -6.63672,14.96485 -2.01953,5.05859 -3.66796,10.10546 -4.96484,15.13671 -1.28906,5.03125 -1.9375,9.90235 -1.9375,14.61719 0,2.35938 0.35547,4.8711 1.07813,7.54688 0.71484,2.67187 1.76953,5.28906 3.14843,7.84765 1.38282,2.5586 3.0625,4.91407 5.04688,7.07422 1.98437,2.15625 4.21094,3.92188 6.68359,5.30078"
     id="path7" />
  <path
     fill-rule="nonzero"
     fill="#1b503e"
     fill-opacity="1"
     d="m 786.16016,728.33203 c -1.21094,4.08594 -2.57813,8.51172 -4.09766,13.28125 -1.52344,4.77344 -3.10547,9.67578 -4.74609,14.70703 -1.64063,5.03125 -3.27344,10.10547 -4.91407,15.22266 -1.63672,5.11719 -3.23828,10.0625 -4.78515,14.83203 -1.55078,4.77344 -2.99219,9.25781 -4.3125,13.45703 -1.32422,4.19531 -2.44532,7.90234 -3.36719,11.125 -0.45703,1.66797 -0.86328,2.91797 -1.20703,3.75 -0.34375,0.83203 -1.03125,1.25 -2.06641,1.25 -1.83984,0 -3.79687,-0.50391 -5.86719,-1.51172 -2.07031,-1.0039 -3.96484,-2.23828 -5.6914,-3.70703 -1.72266,-1.46484 -3.14844,-2.98828 -4.26563,-4.57031 -1.125,-1.58203 -1.6875,-2.97656 -1.6875,-4.1836 0,-4.82812 0.49219,-9.90234 1.46875,-15.21875 0.97657,-5.32031 2.25782,-10.7539 3.83594,-16.30078 1.58203,-5.54687 3.37891,-11.19922 5.39063,-16.94922 2.01562,-5.75 4.0664,-11.5 6.16796,-17.24609 2.09766,-5.75 4.125,-11.45703 6.07813,-17.12109 1.95703,-5.66407 3.68359,-11.19922 5.17969,-16.60157 0.39843,-1.4375 0.75781,-2.73046 1.07422,-3.88281 0.3164,-1.14844 0.71875,-2.11328 1.20703,-2.89062 0.49218,-0.77344 1.16406,-1.37891 2.02734,-1.8086 0.86328,-0.43359 2.04297,-0.70312 3.53906,-0.82031 2.01172,1.38281 4.35157,3.50781 7.02735,6.38281 2.67578,2.875 5.46093,6.08203 8.36328,9.61719 2.90234,3.53516 5.80859,7.17188 8.71094,10.91016 2.90625,3.73828 5.60937,7.14453 8.10546,10.21875 2.50391,3.07812 4.71875,5.60547 6.64454,7.58984 1.92578,1.98438 3.34765,2.97656 4.26953,2.97656 0.63281,-0.34765 1.82422,-1.26562 3.57812,-2.76172 1.75391,-1.49218 3.89453,-3.36328 6.42578,-5.60546 2.53125,-2.24219 5.375,-4.7461 8.53907,-7.50391 3.16015,-2.76172 6.46875,-5.58984 9.91406,-8.49219 3.45312,-2.90625 6.97265,-5.76562 10.57031,-8.58594 3.58984,-2.8125 7.08203,-5.40234 10.47656,-7.75781 3.39063,-2.35937 6.59766,-4.37109 9.61719,-6.03906 3.01953,-1.66797 5.70703,-2.81641 8.0625,-3.44922 1.38281,1.03516 2.83203,2.14063 4.35547,3.32031 1.51953,1.17969 2.97656,2.44532 4.35547,3.79297 1.38281,1.35156 2.58984,2.82031 3.625,4.39844 1.03125,1.58203 1.77734,3.26562 2.23828,5.04687 -1.72656,3.56641 -3.67578,7.82032 -5.86328,12.76563 -2.1836,4.94531 -4.46875,10.32031 -6.85547,16.125 -2.38672,5.80859 -4.86328,11.89062 -7.41797,18.24219 -2.55859,6.35547 -5.07812,12.6914 -7.54687,19.01562 -2.47266,6.32813 -4.8711,12.46485 -7.20313,18.41406 -2.32812,5.94922 -4.46875,11.44532 -6.42187,16.47266 -1.95704,5.03125 -3.6836,9.44531 -5.17579,13.23828 -1.49218,3.79297 -2.67187,6.67188 -3.53515,8.625 -2.01563,0 -4.1836,-0.24609 -6.51172,-0.73047 -2.33203,-0.49218 -4.5,-1.20703 -6.51172,-2.16015 -2.01562,-0.94922 -3.68359,-2.15625 -5,-3.6211 -1.32422,-1.46484 -1.98437,-3.20312 -1.98437,-5.21484 0,-2.07422 0.42968,-4.875 1.29296,-8.41016 0.86329,-3.53515 1.98438,-7.5039 3.35938,-11.90234 1.38281,-4.39844 2.96484,-9.05469 4.74609,-13.97266 1.78516,-4.91406 3.58985,-9.78906 5.42969,-14.61718 4.375,-11.32813 9.32031,-23.51563 14.83594,-36.56641 l -38.54688,28.28516 c -1.15234,0 -2.63281,-0.61719 -4.4414,-1.85157 -1.8125,-1.23828 -3.8125,-2.83203 -5.9961,-4.78906 -2.18359,-1.95312 -4.45703,-4.15234 -6.8164,-6.59766 -2.35547,-2.4414 -4.64063,-4.88671 -6.85547,-7.33203 -2.21485,-2.4414 -4.26953,-4.74218 -6.16797,-6.89843 -1.89453,-2.15625 -3.44531,-3.95313 -4.65234,-5.39063"
     id="path8" />
  <path
     fill-rule="nonzero"
     fill="#e1e6e1"
     fill-opacity="1"
     d="m 748.38281,545.50391 c 0,32.69921 -126.17578,59.20703 -281.82422,59.20703 -155.64453,0 -281.82031,-26.50782 -281.82031,-59.20703 0,-32.69922 126.17578,-59.20704 281.82031,-59.20704 155.64844,0 281.82422,26.50782 281.82422,59.20704"
     id="path9" />
  <path
     fill-rule="nonzero"
     fill="#1b503e"
     fill-opacity="1"
     d="m 464.19141,301.57422 c -23.6836,-18.94922 -37.89063,-14.21094 -47.36329,-14.21094 -9.47656,0 -22.10546,6.83984 -34.73828,6.83984 -12.6289,0 -31.57422,-25.78515 -50.52343,-44.73437 -18.94532,-18.94531 -85.25391,-80.51953 -113.67579,-80.51953 -28.41796,0 -37.89062,18.94531 -37.89062,37.89453 0,18.94531 80.51953,61.57422 118.41406,89.99219 37.89063,28.41797 61.57422,56.83984 61.57422,85.25781 0,28.41797 47.36328,120.51953 104.20313,152.62109 56.83593,32.10157 123.14843,60.52344 179.98828,60.52344 56.83593,0 126.77343,-19.14062 151.5664,-42.62891 14.69922,-13.92578 27.09375,-44.91796 23.6836,-71.04687 -4.44141,-34.03516 -55.60938,-67.36719 -61.57422,-61.57813 0,0 -7.10547,2.3711 7.10547,16.57813 14.21093,14.21094 18.94531,18.94531 18.94531,33.15625 0,14.21094 -9.47266,33.15625 -56.83984,33.15625 -47.36329,0 -99.46485,-18.94531 -170.51172,-47.36719 -71.05078,-28.41797 -161.04297,-89.99219 -161.04297,-123.14844 0,-33.15625 23.68359,-33.15625 37.89062,-33.15625 14.21094,0 30.78907,2.3711 30.78907,2.3711"
     id="path10" />
  <path
     fill-rule="nonzero"
     fill="#b9ad8e"
     fill-opacity="1"
     d="m 475.34375,218.38672 c 0,0 25.96484,-4.91406 30.17578,-3.50781 4.21094,1.40234 7.01563,23.85546 4.91016,28.0664 -2.10547,4.21094 -28.76953,4.21094 -28.76953,4.21094 0,0 0.70312,10.52734 3.50781,16.14062 2.80859,5.61329 -2.80469,12.62891 -14.73438,11.22657 -11.92968,-1.40235 -30.17187,-12.63282 -32.98047,-33.6836 -2.80859,-21.05078 11.92969,-39.99609 20.34766,-41.39843 8.42188,-1.40235 15.10156,-2.8086 16.32422,5.61328 1.21875,8.41797 1.21875,13.33203 1.21875,13.33203"
     id="path11" />
  <path
     fill-rule="nonzero"
     fill="#81ce3c"
     fill-opacity="1"
     d="m 589.53125,450.96875 c -10.13672,-13.73828 -12.42969,-22.24609 -3.26953,-44.16016 14.71875,14.39453 22.24219,21.58985 15.69922,44.16016 -4.57813,-8.50781 -7.84766,-12.42969 -12.10157,-15.375 2.56641,6.86719 -0.32812,15.375 -0.32812,15.375"
     id="path12" />
  <path
     fill-rule="nonzero"
     fill="#fbc324"
     fill-opacity="1"
     d="m 548.53516,385.33984 c -10.79688,3.15235 -23.4375,1.11328 -33.14844,-4.27343 -6.3711,-3.53125 -15.76953,-10.44532 -17.64453,-18.14454 18.79297,-1.28125 37.29687,-4.13281 55.25781,-9.99218 6.53906,-2.13672 21.22266,-5.22657 27.42578,-11.41016 1.32031,19.8125 -12.88281,38.26563 -31.89062,43.82031 m -41.37891,-60.01172 c 8.84766,-5.35546 15.73437,0.76563 16.05469,10.07422 0.0742,2.07422 0.53515,5.32032 -2.125,3.66407 -1.50391,-0.94141 -2.86719,-2.14063 -4.27344,-3.21485 -1.99609,-1.52344 -5.19141,-3.82812 -7.91797,-2.97656 -2.58984,0.80859 -2.88672,3.13672 -3.35937,5.54687 -0.36719,1.89454 -0.69922,3.78907 -1.16016,5.66407 -0.75,3.07422 -1.03516,4.11328 -3.36328,1.4414 -0.46485,-0.53125 -0.99219,-0.71875 -1.4961,-0.68359 -1.59765,-7.61328 0.4336,-15.16016 7.64063,-19.51563 m 48.375,-12.0664 c 7.23047,-1.96875 15.91406,0.91797 17.69141,8.76562 0.17968,0.78516 0.62109,6.61328 -0.94532,6.23047 -1.46484,-0.35547 -2.91015,-1.63672 -4.12109,-2.48047 -2.85938,-1.99609 -5.73828,-4.25 -9.25781,-4.875 -2.09375,-0.37109 -4.87891,0.27735 -6.01172,2.25782 -1.11328,1.94921 -3.33203,13.0664 -6.76172,10.23437 -0.27344,-0.22266 -0.55859,-0.36719 -0.84766,-0.44922 -2.22265,-8.95312 0.76563,-17.09375 10.25391,-19.68359 m 35.02344,-0.78906 c -7.3086,-14.98047 -21.77735,-23.6836 -36.90625,-29.13672 -14.00391,-5.04688 -32.6836,-7.41797 -44.23828,3.69922 -25.40235,10.39843 -36.53516,47.16406 -29.94922,72.5664 8.51953,32.83594 50.97265,47.39063 80.4375,35.8125 C 591.47266,383 604.95703,342 590.55469,312.47266"
     id="path13" />
  <path
     fill-rule="nonzero"
     fill="#2f4aa6"
     fill-opacity="1"
     d="m 679.63281,420.17969 c -6.99219,-1.86328 -17.72265,-6.69141 -25.07031,-5.01563 7.05078,-26.55078 18.60937,-53.1289 22.26562,-80.40234 15.86329,6.14453 32.58594,10.33203 48.98829,14.76562 0.35937,0.0977 0.69531,0.11719 1.01562,0.10547 -2.51562,10.73438 -5.80859,20.5625 -9.89844,30.92969 -5.87109,14.87109 -9.43359,30.83984 -13.89453,46.22656 -7.80078,-2.21484 -15.57422,-4.52344 -23.40625,-6.60937 m -11.38672,18.94922 c -2.51953,-2.17579 -1.05468,-5.32813 0.90625,-7.29688 1.6836,-1.69922 3.82422,-2.64844 6.07032,-2.90625 0.23437,0.39063 0.57031,0.75781 1.05078,1.05859 8.46484,5.375 -0.96875,15.25 -8.02735,9.14454 m 27.63282,-116.19532 c 4.55468,1.45703 9.20312,2.64063 13.64843,4.42969 2.65235,1.0625 5.30469,2.19922 7.76172,3.67969 0.0742,0.043 0.19922,0.1289 0.33985,0.23437 -0.21094,0.10157 -0.46094,0.21485 -0.81641,0.33594 -5.89453,2.01172 -12.24609,-1.34375 -17.31641,-4.21484 -1.82422,-1.03125 -3.97656,-2.29297 -5.48047,-3.91407 0.67969,-0.14453 1.28516,-0.29296 1.86329,-0.55078 m 36.3164,-0.90625 c -13.18359,-7.5625 -31.85937,-9.80078 -46.7539,-12.86328 -6.13672,-1.25781 -20.69141,-3.03515 -18.67969,6.06641 -0.52344,0.41406 -0.91797,1.02344 -1.02735,1.82422 -4.23828,31.13672 -15.39843,60.64843 -24.89062,90.42968 -3.81641,11.96875 -15.42188,33.79688 -1.875,43.21094 8.62109,5.98438 20.79297,8.23047 30.6875,11.03906 7.57422,2.14844 16.75,4.60547 24.69141,2.85547 14.07421,-3.10547 18.19921,-17.0039 22.13281,-29.22656 7.80078,-24.24219 14.71484,-48.82031 22.42187,-73.10937 4.84766,-15.27344 9.39063,-31.00391 -6.70703,-40.22657"
     id="path14" />
  <path
     fill-rule="nonzero"
     fill="#81ce3c"
     fill-opacity="1"
     d="m 768.35937,378.29687 c 4.11329,-27.16406 11.19532,-39.4375 46.5586,-53.92187 0.34765,33.11719 0.70312,49.86328 -32.42969,68.07422 4.47656,-14.88281 5.22656,-23.07031 3.74609,-31.25781 -4.90625,10.73046 -17.875,17.10546 -17.875,17.10546"
     id="path15" />
  <path
     fill-rule="nonzero"
     fill="#b41744"
     fill-opacity="1"
     d="m 614.22266,225.13281 c -1.83594,0.80078 2.27343,10.76563 2.27343,10.77344 2.59375,8.13672 5.58985,39.88281 5.32813,52.34375 -0.85156,1.88281 -2.66406,11.43359 2.41015,9.19922 0.043,-0.0195 0.0469,-0.0586 0.0859,-0.082 0.38281,0.61328 1.1836,0.96093 2.03516,0.4375 22.6289,-13.84766 46.21094,-26.56641 68.07422,-41.60157 1.10156,-0.7539 1.36718,-2.78906 0.1289,-3.58984 -14.71093,-9.48828 -31.9375,-12.14844 -47.95312,-18.57031 -8.20313,-3.28906 -23.29297,-12.86328 -32.38281,-8.91016"
     id="path16" />
</svg>
